<?xml version="1.0" encoding="utf-8"?><svg xmlns="http://www.w3.org/2000/svg" baseProfile="tiny" width="100" height="100" fill="none" stroke="#00a69c" stroke-width="3" stroke-linejoin="round" xmlns:v="https://vecta.io/nano"><circle cx="49.4" cy="52.4" r="27.4"/><g stroke-miterlimit="10"><path d="M29.1 54.9c0-2.2 1.2-5.6 6.8-5.6s11.5-.2 11.5 7.6-6.3 7.9-6.4 13.4c0 4-4.2 3.6-5-.3-2.3-11.6-6.9-10.1-6.9-15.1z"/><path d="M40 26.7a67.07 67.07 0 0 0 6.3 2.5c3.3 1.1.4 3.5-1.8 3.8s-3.2 6.5-9.3 8.1c-6.1 1.5-6.4-.2-6.1 3s.7 3.4 0 3.8-3.5.1-5.3-5.1m36.7-15.5s-2.4 2.6-5.5 2.1c-3-.4-2.8 1.9-2.9 3.1s3.6 1.9 7.1.9 5.5 3.1 10.2.2m3.8 5.2s-3.5 1.6-9.7.7-10.6-3.2-11.3 1.4 1.4 8.2 7.8 8.8 6.1 14.1 11.6 18.9" stroke-linecap="round"/></g></svg>