<?xml version="1.0" encoding="utf-8"?><svg xmlns="http://www.w3.org/2000/svg" baseProfile="tiny" width="100" height="100" fill="none" stroke="#00a59b" stroke-width="3" stroke-linejoin="round" xmlns:v="https://vecta.io/nano"><path stroke-miterlimit="10" d="M49 36.8c-.4-1.6-1-3-1.8-4.3l2.4-4.2-3.2-3.2-4.2 2.4c-1.3-.8-2.8-1.4-4.3-1.8L36.5 21h-4.6l-1.3 4.7c-1.6.4-3 1-4.3 1.8l-4.2-2.4-3.2 3.2 2.4 4.2c-.8 1.3-1.4 2.8-1.8 4.3l-4.7 1.3v4.6l4.7 1.3c.4 1.6 1 3 1.8 4.3l-2.4 4.2 3.2 3.2 4.2-2.4c1.3.8 2.8 1.4 4.3 1.8l1.3 4.7h4.6l1.3-4.7c1.6-.4 3-1 4.3-1.8l4.2 2.4 3.2-3.2-2.4-4.2C48 47 48.6 45.5 49 44l4.7-1.3v-4.6L49 36.8z"/><circle cx="34.2" cy="40.4" r="8.2"/><path stroke-miterlimit="10" d="M74.8 59.7c-.3-1.1-.7-2.1-1.2-3l1.7-2.9-2.2-2.2-3.1 1.6a7.89 7.89 0 0 0-3-1.2l-.9-3.2H63l-.9 3.2c-1.1.3-2.1.7-3 1.2l-2.9-1.7-1.1 1.1-1.1 1.2 1.7 2.9a7.89 7.89 0 0 0-1.2 3l-3.2.9v3.2l3.2.9c.3 1.1.7 2.1 1.2 3L54 70.5l2.2 2.2 2.9-1.7a7.89 7.89 0 0 0 3 1.2l.9 3.2h3.2l.9-3.2c1.1-.3 2.1-.7 3-1.2l2.9 1.7 2.2-2.2-1.7-2.9a7.89 7.89 0 0 0 1.2-3l3.2-.9v-3.2l-3.1-.8z"/><circle cx="64.6" cy="62.2" r="5.7"/></svg>