<?xml version="1.0" encoding="utf-8"?><svg xmlns="http://www.w3.org/2000/svg" baseProfile="tiny" width="100" height="100" fill="none" stroke="#00a69c" stroke-width="3" stroke-linejoin="round" stroke-miterlimit="10" xmlns:v="https://vecta.io/nano"><path d="M29.1 48.4l8 37.6h26l8-37.6z"/><path stroke-linecap="round" d="M49 48.4V47c0-1.1.1-2.2.2-3.2"/><path d="M49.2 43.7h.9c10.6 0 19.4-7.8 20.9-17.9h-.9c-10.5 0-19.3 7.8-20.9 17.9z"/><path stroke-linecap="round" d="M50 40.3c.4-1.6.6-3.4.6-5.1 0-11.3-8.8-20.5-19.9-21.1-1.2 2.6-1.8 5.5-1.8 8.6 0 11.3 8.8 20.5 19.9 21.1"/></svg>