<svg xmlns="http://www.w3.org/2000/svg" width="39" height="32"><defs><style>.cls-1 { fill: #939598; fill-rule: evenodd; }</style></defs><path d="M15.23 0q-1.82 1.14-4.5 2.9a29.36 29.36 0 0 0-5.1 4.32 24.9 24.9 0 0 0-4 5.65 14.98 14.98 0 0 0-1.63 7 15.95 15.95 0 0 0 2.16 8.8C3.6 30.86 6 32 9.36 32a6.3 6.3 0 0 0 5.07-2.17 7.03 7.03 0 0 0 1.84-4.65 6.65 6.65 0 0 0-2.07-5.3 8.44 8.44 0 0 0-5.7-1.8H5.67a17.02 17.02 0 0 1 1.22-5.02 13.9 13.9 0 0 1 2.52-3.72 20.77 20.77 0 0 1 3.46-3.05c1.13-.77 2.6-1.7 4.45-2.75zM36.9 0q-1.82 1.14-4.52 2.9a29.35 29.35 0 0 0-5.1 4.32 24.9 24.9 0 0 0-3.97 5.65 14.98 14.98 0 0 0-1.63 7 15.95 15.95 0 0 0 2.17 8.8c1.44 2.2 3.84 3.33 7.2 3.33a6.3 6.3 0 0 0 5.06-2.17 7.04 7.04 0 0 0 1.84-4.65 6.65 6.65 0 0 0-2.07-5.3 8.44 8.44 0 0 0-5.7-1.8h-2.82a17.47 17.47 0 0 1 1.2-5 13.63 13.63 0 0 1 2.54-3.74 20.7 20.7 0 0 1 3.45-3.05c1.13-.77 2.6-1.7 4.45-2.75z" class="cls-1"/></svg>