<?xml version="1.0" encoding="utf-8"?>
<!-- Generator: Adobe Illustrator 23.0.1, SVG Export Plug-In . SVG Version: 6.00 Build 0)  -->
<svg version="1.1" id="Layer_1" xmlns="http://www.w3.org/2000/svg" xmlns:xlink="http://www.w3.org/1999/xlink" x="0px" y="0px"
	 viewBox="0 0 200 45" style="enable-background:new 0 0 200 45;" xml:space="preserve">
<style type="text/css">
	.st0{fill:#4D1D6E;}
	.st1{fill:#00A19A;}
</style>
<g>
	<g>
		<g>
			<path class="st0" d="M22.5,30.6l-0.8-0.8c-0.2-0.2-0.4-0.3-0.7-0.3h-1.5c-0.5,0-1-0.4-1-1v-4.4c0-0.3-0.1-0.5-0.3-0.7l0,0
				c-0.4-0.4-0.4-1,0-1.4l0,0c0.2-0.2,0.3-0.4,0.3-0.7V3.2c0-0.7-0.7-1.2-1.4-0.9L7,6.5C6.8,6.6,6.6,6.8,6.5,7L0.1,22.3
				c-0.1,0.2-0.1,0.5,0,0.8l6.4,15.3C6.6,38.7,6.8,38.9,7,39l14.4,5.9c0.7,0.3,1.4-0.2,1.4-0.9V31.3C22.8,31,22.7,30.7,22.5,30.6z
				 M18.7,36.4c0,0.7-0.7,1.2-1.4,0.9l-6.1-2.5c-0.2-0.1-0.4-0.3-0.5-0.5L6,23.1c-0.1-0.2-0.1-0.5,0-0.8l4.7-11.2
				c0.1-0.2,0.3-0.4,0.5-0.5l2.5-1c0.3-0.1,0.7,0.1,0.7,0.5v11.6c0,0.2,0.1,0.3,0.3,0.3c0.2,0.2,0.3,0.4,0.3,0.7
				c0,0.3-0.1,0.5-0.3,0.7c-0.1,0-0.2,0-0.2,0.1c-0.1,0.1-0.1,0.1-0.1,0.2v8.6c0,0.3,0.1,0.5,0.3,0.7l1.8,1.8
				c0.2,0.2,0.4,0.3,0.7,0.3h0.5c0.5,0,1,0.4,1,1V36.4z"/>
		</g>
		<path class="st1" d="M45.2,22.5L38.7,6.9c-0.1-0.2-0.2-0.3-0.3-0.3L22.7,0C22.5,0,22.3,0,22.2,0l-0.9,0.4
			c-0.2,0.1-0.4,0.3-0.4,0.6v13.2c0,0.2,0.1,0.3,0.2,0.4l1,1c0.1,0.1,0.3,0.2,0.4,0.2h3.2c0.4,0,0.6,0.3,0.6,0.6v2.8
			c0,0.3-0.3,0.6-0.6,0.6h-3.2c-0.2,0-0.3,0.1-0.5,0.2L20,22.2c-0.2,0.2-0.2,0.6,0,0.9l2.1,2.1c0.1,0.1,0.3,0.2,0.5,0.2h3.2
			c0.4,0,0.6,0.3,0.6,0.6v2.8c0,0.3-0.3,0.6-0.6,0.6c-0.4,0-0.6,0.3-0.6,0.6v4.3c0,0,0,0.1,0,0.1v4.3c0,0,0,0.1,0,0.1v4.5
			c0,0.5,0.5,0.8,0.9,0.6l12.3-5.1c0.2-0.1,0.3-0.2,0.3-0.3L45.2,23C45.3,22.8,45.3,22.6,45.2,22.5z M39.3,23l-4.8,11.5
			c-0.1,0.2-0.2,0.3-0.3,0.3l-4.8,2v-3.1l2.4-2.4c0.1-0.1,0.2-0.3,0.2-0.4V25c0-0.2-0.1-0.3-0.2-0.4l-1.5-1.4
			c-0.2-0.2-0.2-0.6,0-0.9l1.5-1.4c0.1-0.1,0.2-0.3,0.2-0.4v-5.8c0-0.2-0.1-0.3-0.2-0.4l-3.6-3.6c-0.1-0.1-0.3-0.2-0.4-0.2h-2.1
			c-0.4,0-0.6-0.3-0.6-0.6V7.8c0-0.5,0.5-0.8,0.9-0.6l8.3,3.4c0.2,0.1,0.3,0.2,0.3,0.3l4.8,11.5C39.4,22.6,39.4,22.8,39.3,23z"/>
	</g>
	<g>
		<g>
			<path class="st0" d="M125.4,25.7l-5.2-13.3c-0.1-0.2-0.2-0.3-0.4-0.3h-5.6c-0.2,0-0.4,0.2-0.4,0.4v20c0,0.2,0.2,0.4,0.4,0.4h4.3
				c0.2,0,0.4-0.2,0.4-0.4V22.3c0-0.5,0.6-0.6,0.8-0.1l3.7,10.6c0.1,0.2,0.2,0.3,0.4,0.3h3.8c0.2,0,0.3-0.1,0.4-0.3l3.7-10.5
				c0.1-0.4,0.8-0.3,0.8,0.1v10.2c0,0.2,0.2,0.4,0.4,0.4h4.3c0.2,0,0.4-0.2,0.4-0.4v-20c0-0.2-0.2-0.4-0.4-0.4h-5.5
				c-0.2,0-0.3,0.1-0.4,0.3l-5.1,13.3C126,26,125.6,26,125.4,25.7z"/>
			<path class="st0" d="M147.3,12.4l-7.4,20c-0.1,0.3,0.1,0.5,0.4,0.5h4.5c0.2,0,0.3-0.1,0.4-0.3l1.1-3.3c0.1-0.2,0.2-0.3,0.4-0.3
				h7.3c0.2,0,0.3,0.1,0.4,0.3l1.1,3.3c0.1,0.2,0.2,0.3,0.4,0.3h4.6c0.3,0,0.5-0.3,0.4-0.5l-7.4-20c-0.1-0.2-0.2-0.3-0.4-0.3h-5.3
				C147.5,12.1,147.3,12.3,147.3,12.4z M147.8,24.8l2.1-6.1c0.1-0.4,0.6-0.4,0.8,0l2.1,6.1c0.1,0.3-0.1,0.5-0.4,0.5h-4.2
				C147.9,25.3,147.7,25,147.8,24.8z"/>
			<path class="st0" d="M178.1,22.5c0.8-1.1,1.3-2.4,1.3-3.9c0-1.3-0.3-2.4-0.9-3.4c-0.6-1-1.4-1.8-2.6-2.4
				c-1.2-0.6-2.6-0.9-4.2-0.9h-8.3c-0.2,0-0.4,0.2-0.4,0.4v20.2c0,0.2,0.2,0.4,0.4,0.4h4.3c0.2,0,0.4-0.2,0.4-0.4v-7.1
				c0-0.2,0.2-0.4,0.4-0.4h0.5c0.1,0,0.3,0.1,0.4,0.2l4.3,7.5c0.1,0.1,0.2,0.2,0.4,0.2h4.7c0.3,0,0.5-0.3,0.3-0.6l-4.4-7.2
				c-0.1-0.2,0-0.5,0.2-0.6C176.3,24.2,177.4,23.5,178.1,22.5z M173.5,20.9c-0.5,0.4-1.2,0.7-2.2,0.7h-2.8c-0.2,0-0.4-0.2-0.4-0.4
				v-4.5c0-0.2,0.2-0.4,0.4-0.4h2.8c1,0,1.7,0.2,2.2,0.7c0.5,0.5,0.7,1.1,0.7,2C174.2,19.8,174,20.5,173.5,20.9z"/>
			<path class="st0" d="M199.6,12h-5.1c-0.1,0-0.2,0.1-0.3,0.2l-6.4,8.2c-0.2,0.3-0.7,0.1-0.7-0.2v-7.7c0-0.2-0.2-0.4-0.4-0.4h-4.3
				c-0.2,0-0.4,0.2-0.4,0.4v20.2c0,0.2,0.2,0.4,0.4,0.4h4.3c0.2,0,0.4-0.2,0.4-0.4v-7.8c0-0.4,0.5-0.6,0.7-0.2l6.3,8.3
				c0.1,0.1,0.2,0.2,0.3,0.2h5.1c0.3,0,0.5-0.4,0.3-0.7l-7.8-9.8c-0.1-0.1-0.1-0.4,0-0.5l7.8-9.4C200.1,12.4,199.9,12,199.6,12z"/>
		</g>
		<g>
			<path class="st1" d="M68.9,22.5c-0.3-0.1-0.3-0.6,0-0.7c0.6-0.3,1.2-0.7,1.6-1.3c0.7-0.8,1-1.9,1-3.2c0-1.7-0.6-3.1-1.8-4
				s-2.8-1.4-5-1.4h-9.2c-0.2,0-0.4,0.2-0.4,0.4v20.2c0,0.2,0.2,0.4,0.4,0.4H65c2.3,0,4-0.5,5.2-1.5c1.2-1,1.8-2.4,1.8-4.2
				c0-1.2-0.4-2.3-1.1-3.2C70.4,23.4,69.7,22.9,68.9,22.5z M60.3,16.5c0-0.2,0.2-0.4,0.4-0.4h2.9c1.8,0,2.7,0.8,2.7,2.3
				c0,1.5-0.9,2.3-2.7,2.3h-2.9c-0.2,0-0.4-0.2-0.4-0.4V16.5z M63.9,28.9h-3.2c-0.2,0-0.4-0.2-0.4-0.4v-3.9c0-0.2,0.2-0.4,0.4-0.4
				h3.2c0.9,0,1.6,0.2,2.1,0.6c0.5,0.4,0.7,1,0.7,1.8C66.8,28.1,65.8,28.9,63.9,28.9z"/>
			<path class="st1" d="M80.8,12.4l-7.4,20c-0.1,0.3,0.1,0.5,0.4,0.5h4.5c0.2,0,0.3-0.1,0.4-0.3l1.1-3.3c0.1-0.2,0.2-0.3,0.4-0.3
				h7.3c0.2,0,0.3,0.1,0.4,0.3l1.1,3.3c0.1,0.2,0.2,0.3,0.4,0.3H94c0.3,0,0.5-0.3,0.4-0.5l-7.4-20c-0.1-0.2-0.2-0.3-0.4-0.3h-5.3
				C81,12.1,80.9,12.3,80.8,12.4z M81.4,24.8l2.1-6.1c0.1-0.4,0.6-0.4,0.8,0l2.1,6.1c0.1,0.3-0.1,0.5-0.4,0.5h-4.2
				C81.5,25.3,81.3,25,81.4,24.8z"/>
			<path class="st1" d="M95.1,12.4v3.2c0,0.2,0.2,0.4,0.4,0.4h4.9c0.2,0,0.4,0.2,0.4,0.4v16.2c0,0.2,0.2,0.4,0.4,0.4h4.3
				c0.2,0,0.4-0.2,0.4-0.4V16.4c0-0.2,0.2-0.4,0.4-0.4h4.9c0.2,0,0.4-0.2,0.4-0.4v-3.2c0-0.2-0.2-0.4-0.4-0.4H95.5
				C95.3,12,95.1,12.2,95.1,12.4z"/>
		</g>
	</g>
</g>
</svg>
