<?xml version="1.0" encoding="utf-8"?>
<!-- Generator: Adobe Illustrator 23.0.1, SVG Export Plug-In . SVG Version: 6.00 Build 0)  -->
<svg version="1.1" id="Layer_1" xmlns="http://www.w3.org/2000/svg" xmlns:xlink="http://www.w3.org/1999/xlink" x="0px" y="0px"
	 viewBox="0 0 140 140" style="enable-background:new 0 0 140 140;" xml:space="preserve">
<g>
	<g>
		<g>
			<path d="M69.7,94.9l-2.4-2.4c-0.6-0.6-1.4-0.9-2.2-0.9h-4.6c-1.7,0-3.1-1.4-3.1-3V74.9c0-0.8-0.3-1.6-0.9-2.2l0,0
				c-1.2-1.2-1.2-3.1,0-4.3l0,0c0.6-0.6,0.9-1.3,0.9-2.2V10.3c0-2.2-2.2-3.6-4.2-2.8l-31.5,13c-0.8,0.3-1.3,0.9-1.7,1.6L0.2,69.5
				c-0.3,0.7-0.3,1.6,0,2.3L20,119.3c0.3,0.7,0.9,1.3,1.7,1.6l44.7,18.4c2,0.8,4.2-0.6,4.2-2.8V97.1C70.6,96.3,70.2,95.5,69.7,94.9z
				 M57.8,113.1c0,2.2-2.2,3.6-4.2,2.8l-19-7.8c-0.8-0.3-1.3-0.9-1.7-1.6L18.5,71.9c-0.3-0.7-0.3-1.6,0-2.3l14.4-34.6
				c0.3-0.7,0.9-1.3,1.7-1.6l7.8-3.2c1-0.4,2.1,0.3,2.1,1.4v36c0,0.5,0.4,0.9,0.9,0.9c0.6,0.6,0.9,1.4,0.9,2.2
				c0,0.8-0.3,1.6-0.9,2.2c-0.2,0-0.5,0.1-0.6,0.3c-0.2,0.2-0.3,0.4-0.3,0.6v26.5c0,0.8,0.3,1.6,0.9,2.2l5.6,5.6
				c0.6,0.6,1.4,0.9,2.2,0.9h1.6c1.7,0,3.1,1.4,3.1,3V113.1z"/>
		</g>
		<path d="M139.9,69.9l-20.1-48.3c-0.2-0.5-0.6-0.9-1.1-1.1l-48.6-20c-0.5-0.2-1-0.2-1.5,0l-2.8,1.1c-0.7,0.3-1.2,1-1.2,1.8v40.8
			c0,0.5,0.2,1,0.6,1.4l3.1,3.1c0.4,0.4,0.9,0.6,1.4,0.6h10c1.1,0,2,0.9,2,2V60c0,1.1-0.9,2-2,2h-10c-0.5,0-1,0.2-1.4,0.6l-6.6,6.6
			c-0.8,0.8-0.8,2,0,2.8l6.6,6.6c0.4,0.4,0.9,0.6,1.4,0.6h10c1.1,0,2,0.9,2,2v8.7c0,1.1-0.9,2-2,2c-1.1,0-2,0.9-2,2v13.1
			c0,0.1,0,0.3,0,0.4v13.2c0,0.1,0,0.2,0,0.4v13.9c0,1.4,1.4,2.3,2.7,1.8l38.2-15.7c0.5-0.2,0.9-0.6,1.1-1.1l20.1-48.3
			C140,70.9,140,70.4,139.9,69.9z M121.6,71.4l-14.8,35.4c-0.2,0.5-0.6,0.9-1.1,1.1l-15,6.2v-9.5l7.5-7.5c0.4-0.4,0.6-0.9,0.6-1.4
			v-18c0-0.5-0.2-1-0.6-1.4l-4.5-4.5c-0.8-0.8-0.8-2,0-2.8l4.5-4.5c0.4-0.4,0.6-0.9,0.6-1.4v-18c0-0.5-0.2-1-0.6-1.4l-11.1-11
			c-0.4-0.4-0.9-0.6-1.4-0.6h-6.5c-1.1,0-2-0.9-2-2v-5.7c0-1.4,1.4-2.3,2.7-1.8l25.6,10.6c0.5,0.2,0.9,0.6,1.1,1.1l14.8,35.4
			C121.8,70.4,121.8,70.9,121.6,71.4z"/>
	</g>
</g>
</svg>
