<?xml version="1.0" encoding="utf-8"?>
<!-- Generator: Adobe Illustrator 23.0.1, SVG Export Plug-In . SVG Version: 6.00 Build 0)  -->
<svg version="1.1" id="Layer_1" xmlns="http://www.w3.org/2000/svg" xmlns:xlink="http://www.w3.org/1999/xlink" x="0px" y="0px"
	 viewBox="0 0 220 220" style="enable-background:new 0 0 220 220;" xml:space="preserve">
<style type="text/css">
	.st0{fill:#FFFFFF;}
</style>
<g>
	<g>
		<g>
			<path class="st0" d="M106.8,209.6l-8.3-21.2c0-0.1-0.2-0.2-0.3-0.2h-9c-0.2,0-0.3,0.1-0.3,0.3v31.2c0,0.2,0.1,0.3,0.3,0.3h7.1
				c0.2,0,0.3-0.1,0.3-0.3v-17.9c0-0.3,0.5-0.4,0.6-0.1l6.3,18.1c0,0.1,0.2,0.2,0.3,0.2h6.3c0.1,0,0.2-0.1,0.3-0.2l6.2-18
				c0.1-0.3,0.6-0.2,0.6,0.1v17.8c0,0.2,0.1,0.3,0.3,0.3h7.1c0.2,0,0.3-0.1,0.3-0.3v-31.2c0-0.2-0.1-0.3-0.3-0.3h-8.9
				c-0.1,0-0.2,0.1-0.3,0.2l-8.1,21.2C107.3,209.9,106.9,209.9,106.8,209.6z"/>
			<path class="st0" d="M139.7,188.4l-11.5,31.2c-0.1,0.2,0.1,0.4,0.3,0.4h7.5c0.1,0,0.2-0.1,0.3-0.2l1.9-5.4c0-0.1,0.2-0.2,0.3-0.2
				H150c0.1,0,0.2,0.1,0.3,0.2l1.9,5.4c0,0.1,0.2,0.2,0.3,0.2h7.6c0.2,0,0.4-0.2,0.3-0.4l-11.5-31.2c0-0.1-0.2-0.2-0.3-0.2H140
				C139.9,188.2,139.8,188.3,139.7,188.4z M140.4,207.9l3.6-10.5c0.1-0.3,0.5-0.3,0.6,0l3.6,10.5c0.1,0.2-0.1,0.4-0.3,0.4h-7.2
				C140.4,208.3,140.3,208.1,140.4,207.9z"/>
			<path class="st0" d="M186.5,204c1.3-1.6,1.9-3.6,1.9-5.9c0-2-0.4-3.7-1.3-5.2c-0.9-1.5-2.2-2.7-3.9-3.6c-1.8-0.9-3.9-1.3-6.4-1.3
				h-12.9c-0.2,0-0.3,0.1-0.3,0.3v31.4c0,0.2,0.1,0.3,0.3,0.3h7.1c0.2,0,0.3-0.1,0.3-0.3v-11.5c0-0.2,0.1-0.3,0.3-0.3h1.3
				c0.1,0,0.2,0.1,0.3,0.2l6.8,11.8c0.1,0.1,0.2,0.2,0.3,0.2h7.9c0.2,0,0.4-0.3,0.3-0.5l-7.1-11.8c-0.1-0.2,0-0.4,0.2-0.4
				C183.5,206.7,185.3,205.6,186.5,204z M179.4,201.6c-0.7,0.7-1.9,1-3.4,1h-4.5c-0.2,0-0.3-0.1-0.3-0.3v-7.5c0-0.2,0.1-0.3,0.3-0.3
				h4.5c1.5,0,2.6,0.4,3.4,1.1c0.7,0.7,1.1,1.7,1.1,3C180.5,199.9,180.2,200.9,179.4,201.6z"/>
			<path class="st0" d="M219.7,187.9h-8.5c-0.1,0-0.2,0-0.2,0.1l-10.3,13.3c-0.2,0.2-0.5,0.1-0.5-0.2v-12.9c0-0.2-0.1-0.3-0.3-0.3
				h-7.1c-0.2,0-0.3,0.1-0.3,0.3v31.4c0,0.2,0.1,0.3,0.3,0.3h7.1c0.2,0,0.3-0.1,0.3-0.3v-13.2c0-0.3,0.4-0.4,0.5-0.2l10.2,13.5
				c0.1,0.1,0.1,0.1,0.2,0.1h8.6c0.3,0,0.4-0.3,0.2-0.5l-12.4-15.7c-0.1-0.1-0.1-0.3,0-0.4l12.4-15
				C220.1,188.2,219.9,187.9,219.7,187.9z"/>
		</g>
		<g>
			<path class="st0" d="M20.2,203.8c-0.3-0.1-0.3-0.5,0-0.6c1.2-0.5,2.3-1.2,3.1-2.2c1-1.3,1.5-2.9,1.5-4.8c0-2.6-0.9-4.7-2.7-6.1
				s-4.3-2.1-7.6-2.1H0.3c-0.2,0-0.3,0.1-0.3,0.3v31.4c0,0.2,0.1,0.3,0.3,0.3h14.6c3.4,0,6-0.8,7.9-2.3c1.8-1.5,2.7-3.7,2.7-6.4
				c0-1.9-0.6-3.5-1.7-4.9C22.9,205.1,21.7,204.3,20.2,203.8z M7.8,194.5c0-0.2,0.1-0.3,0.3-0.3h4.7c2.8,0,4.1,1.1,4.1,3.4
				c0,2.3-1.3,3.4-4,3.4H8.1c-0.2,0-0.3-0.1-0.3-0.3V194.5z M13.3,213.7H8.1c-0.2,0-0.3-0.1-0.3-0.3v-6.6c0-0.2,0.1-0.3,0.3-0.3h5.2
				c1.4,0,2.5,0.3,3.2,1c0.8,0.7,1.1,1.5,1.1,2.7C17.6,212.5,16.2,213.7,13.3,213.7z"/>
			<path class="st0" d="M39,188.4l-11.5,31.2c-0.1,0.2,0.1,0.4,0.3,0.4h7.5c0.1,0,0.2-0.1,0.3-0.2l1.9-5.4c0-0.1,0.2-0.2,0.3-0.2
				h11.6c0.1,0,0.2,0.1,0.3,0.2l1.9,5.4c0,0.1,0.2,0.2,0.3,0.2h7.6c0.2,0,0.4-0.2,0.3-0.4L48,188.4c0-0.1-0.2-0.2-0.3-0.2h-8.5
				C39.1,188.2,39,188.3,39,188.4z M39.6,207.9l3.6-10.5c0.1-0.3,0.5-0.3,0.6,0l3.6,10.5c0.1,0.2-0.1,0.4-0.3,0.4h-7.2
				C39.7,208.3,39.5,208.1,39.6,207.9z"/>
			<path class="st0" d="M60.6,188.2v5.6c0,0.2,0.1,0.3,0.3,0.3h8c0.2,0,0.3,0.1,0.3,0.3v25.3c0,0.2,0.1,0.3,0.3,0.3h7.2
				c0.2,0,0.3-0.1,0.3-0.3v-25.3c0-0.2,0.1-0.3,0.3-0.3h8.1c0.2,0,0.3-0.1,0.3-0.3v-5.6c0-0.2-0.1-0.3-0.3-0.3H60.9
				C60.7,187.9,60.6,188.1,60.6,188.2z"/>
		</g>
	</g>
	<g>
		<g>
			<path class="st0" d="M110.3,107.1l-2.7-2.7c-0.7-0.6-1.5-1-2.5-1h-5.3c-1.9,0-3.5-1.5-3.5-3.4V84.4c0-0.9-0.4-1.8-1-2.4l0,0
				c-1.4-1.3-1.4-3.5,0-4.9l0,0c0.7-0.6,1-1.5,1-2.4V11.2c0-2.5-2.5-4.1-4.8-3.2L55.9,22.7c-0.9,0.4-1.5,1-1.9,1.9L31.6,78.3
				c-0.4,0.8-0.4,1.8,0,2.6L54,134.7c0.4,0.8,1,1.5,1.9,1.9l50.6,20.8c2.3,0.9,4.8-0.7,4.8-3.2v-44.7
				C111.3,108.6,110.9,107.7,110.3,107.1z M96.9,127.7c0,2.5-2.5,4.1-4.8,3.2L70.6,122c-0.9-0.3-1.5-1-1.9-1.9L52.3,80.9
				c-0.4-0.8-0.4-1.8,0-2.6l16.3-39.2c0.4-0.8,1-1.5,1.9-1.9l8.8-3.6c1.1-0.5,2.4,0.4,2.4,1.6V76c0,0.6,0.5,1,1,1
				c0.7,0.7,1,1.6,1,2.4c0,0.9-0.3,1.8-1,2.4c-0.3,0-0.5,0.1-0.7,0.3c-0.2,0.2-0.3,0.4-0.3,0.7v30c0,0.9,0.4,1.8,1,2.4l6.4,6.3
				c0.6,0.6,1.5,1,2.5,1h1.8c1.9,0,3.5,1.5,3.5,3.4V127.7z"/>
		</g>
		<path class="st0" d="M189.8,78.7L167,24c-0.2-0.5-0.7-1-1.2-1.2l-55-22.7c-0.5-0.2-1.2-0.2-1.7,0L106,1.5
			c-0.8,0.3-1.4,1.2-1.4,2.1v46.2c0,0.6,0.2,1.1,0.7,1.6l3.5,3.5c0.4,0.4,1,0.7,1.6,0.7h11.4c1.2,0,2.2,1,2.2,2.2v9.9
			c0,1.2-1,2.2-2.2,2.2h-11.3c-0.6,0-1.2,0.2-1.6,0.6l-7.5,7.4c-0.9,0.9-0.9,2.3,0,3.1l7.5,7.4c0.4,0.4,1,0.6,1.6,0.6h11.3
			c1.2,0,2.2,1,2.2,2.2v9.9c0,1.2-1,2.2-2.2,2.2c-1.2,0-2.2,1-2.2,2.2v14.9c0,0.2,0,0.3,0,0.4v15c0,0.1,0,0.3,0,0.4v15.8
			c0,1.6,1.6,2.7,3.1,2l43.2-17.8c0.5-0.2,1-0.7,1.2-1.2l22.8-54.7C190.1,79.9,190.1,79.3,189.8,78.7z M169.1,80.4l-16.7,40.1
			c-0.2,0.5-0.7,1-1.2,1.2l-17,7V118l8.5-8.5c0.4-0.4,0.7-1,0.7-1.6V87.6c0-0.6-0.2-1.2-0.7-1.6l-5.1-5.1c-0.9-0.9-0.9-2.3,0-3.1
			l5.1-5.1c0.4-0.4,0.7-1,0.7-1.6V50.8c0-0.6-0.2-1.2-0.7-1.6l-12.6-12.5c-0.4-0.4-1-0.6-1.6-0.6h-7.3c-1.2,0-2.2-1-2.2-2.2v-6.4
			c0-1.6,1.6-2.7,3.1-2l29.1,12c0.5,0.2,1,0.7,1.2,1.2l16.7,40.1C169.3,79.3,169.3,79.9,169.1,80.4z"/>
	</g>
</g>
</svg>
